<svg width="404" height="416" viewBox="0 0 404 416" fill="none" xmlns="http://www.w3.org/2000/svg">
<g clip-path="url(#clip0_102_21)">
<g clip-path="url(#clip1_102_21)">
<path d="M275.104 394.235L365.971 382.36L353.632 287.943L322.712 329.802L278.398 294.356C289.227 274.594 293.47 251.626 290.476 228.978C282.98 171.624 232.153 130.974 176.943 138.189C121.751 145.402 83.0771 197.75 90.5729 255.104C98.0687 312.459 148.897 353.115 204.095 345.9C225.9 343.086 246.142 332.912 261.712 316.942L306.025 352.382L275.104 394.235ZM146.114 302.164C138.426 296.054 131.968 288.433 127.115 279.743C122.262 271.054 119.109 261.467 117.84 251.541C116.516 241.622 117.1 231.549 119.557 221.904C122.014 212.26 126.296 203.237 132.155 195.357C137.967 187.44 145.247 180.813 153.572 175.862C161.898 170.911 171.104 167.734 180.657 166.514C200.081 163.976 219.336 169.438 234.947 181.923C242.634 188.032 249.091 195.652 253.945 204.341C258.798 213.03 261.951 222.615 263.22 232.54C265.858 252.724 260.784 272.652 248.906 288.73C243.094 296.648 235.813 303.275 227.486 308.226C219.16 313.177 209.953 316.354 200.399 317.573C180.98 320.111 161.725 314.649 146.114 302.164Z" fill="#0082CB"/>
</g>
<path d="M182.934 305.422C233.334 329.679 294.847 306.807 320.052 254.438C345.256 202.07 324.757 139.726 274.356 115.469C228.752 93.5197 174.13 110.242 145.467 152.416L116.146 138.305L137.244 94.4692L109.119 80.933L88.0213 124.768L46.0025 104.545L31.9375 133.769L73.9563 153.992L52.8588 197.828L80.9838 211.364L102.081 167.528L131.402 181.64C116.33 230.337 137.329 283.473 182.934 305.422V305.422ZM260.291 144.692C295.181 161.484 309.374 204.65 291.926 240.902C274.479 277.154 231.888 292.991 196.999 276.199C180.243 268.111 167.501 253.45 161.564 235.43C155.628 217.41 156.982 197.5 165.329 180.062L165.399 179.916C173.82 162.514 188.537 149.035 206.323 142.432C224.11 135.83 243.517 136.643 260.291 144.692V144.692Z" fill="#CA2B2B"/>
<path d="M270 203C282.833 242.167 284.6 322.8 189 332" stroke="#0082CB" stroke-width="25"/>
</g>
<defs>
<clipPath id="clip0_102_21">
<rect width="371.865" height="357.885" fill="white" transform="translate(354.96 0.857025) rotate(82.5541)"/>
</clipPath>
<clipPath id="clip1_102_21">
<rect width="266.608" height="256.585" fill="white" transform="translate(331.422 118) rotate(82.5541)"/>
</clipPath>
</defs>
</svg>
